HIERARCHY
ROOT Hips
{
  OFFSET 0 36.382 -0.143039
  CHANNELS 6 Xposition Yposition Zposition Zrotation Xrotation Yrotation
  JOINT RightUpLeg
  {
    OFFSET -4.29018 -2.89678 0.143039
    CHANNELS 3 Zrotation Xrotation Yrotation
    JOINT RightLeg
    {
      OFFSET -0.168642 -10.8761 -0.19478
      CHANNELS 3 Zrotation Xrotation Yrotation
      JOINT RightFoot
      {
        OFFSET 0.157921 -15.9551 -0.639646
        CHANNELS 3 Zrotation Xrotation Yrotation
        JOINT RightToeBase
        {
          OFFSET -0.0414729 -3.68646 5.89146
          CHANNELS 3 Zrotation Xrotation Yrotation
          End Site
          {
            OFFSET -0.058008 -0.022426 3.3914
          }
        }
      }
    }
  }
  JOINT LeftUpLeg
  {
    OFFSET 4.29018 -2.89678 0.143039
    CHANNELS 3 Zrotation Xrotation Yrotation
    JOINT LeftLeg
    {
      OFFSET 0.168642 -10.8761 -0.194801
      CHANNELS 3 Zrotation Xrotation Yrotation
      JOINT LeftFoot
      {
        OFFSET -0.157921 -15.9551 -0.639645
        CHANNELS 3 Zrotation Xrotation Yrotation
        JOINT LeftToeBase
        {
          OFFSET 0.0414729 -3.68646 5.89146
          CHANNELS 3 Zrotation Xrotation Yrotation
          End Site
          {
            OFFSET 0 0 0
          }
        }
      }
    }
  }
  JOINT Spine
  {
    OFFSET 5.86144e-05 2.32248 -0.145562
    CHANNELS 3 Zrotation Xrotation Yrotation
    JOINT Spine1
    {
      OFFSET 0 6.08593 -0.152112
      CHANNELS 3 Zrotation Xrotation Yrotation
      JOINT Spine2
      {
        OFFSET 0 6.33752 -0.148988
        CHANNELS 3 Zrotation Xrotation Yrotation
        JOINT RightShoulder
        {
          OFFSET -2.05493 4.15599 -0.189712
          CHANNELS 3 Zrotation Xrotation Yrotation
          JOINT RightArm
          {
            OFFSET -4.33325 -1.05627 -0.0141634
            CHANNELS 3 Zrotation Xrotation Yrotation
            JOINT RightForeArm
            {
              OFFSET -10.3086 -2.91358e-05 -2.42704e-05
              CHANNELS 3 Zrotation Xrotation Yrotation
              JOINT RightHand
              {
                OFFSET -10.1392 -4.87675e-05 0
                CHANNELS 3 Zrotation Xrotation Yrotation
                End Site
                {
                  OFFSET -3.93579 -5.00749e-05 0
                }
              }
            }
          }
        }
        JOINT LeftShoulder
        {
          OFFSET 2.05493 4.15599 -0.189712
          CHANNELS 3 Zrotation Xrotation Yrotation
          JOINT LeftArm
          {
            OFFSET 4.33325 -1.05627 -0.0141634
            CHANNELS 3 Zrotation Xrotation Yrotation
            JOINT LeftForeArm
            {
              OFFSET 10.3086 -2.72925e-05 -2.53457e-05
              CHANNELS 3 Zrotation Xrotation Yrotation
              JOINT LeftHand
              {
                OFFSET 10.1392 -4.95574e-05 0
                CHANNELS 3 Zrotation Xrotation Yrotation
                End Site
                {
                  OFFSET 3.93579 -5.00749e-05 0
                }
              }
            }
          }
        }
        JOINT Neck
        {
          OFFSET 0 5.46156 -0.234248
          CHANNELS 3 Zrotation Xrotation Yrotation
          JOINT Head
          {
            OFFSET 0 3.87151 0.0520564
            CHANNELS 3 Zrotation Xrotation Yrotation
            End Site
            {
              OFFSET 0 12.6919 0
            }
          }
        }
      }
    }
  }
}
MOTION
Frames:	6
Frame Time:	0.0333333
-2.76274 38.8584 2.49997 4.00878 -5.82885 6.11244 2.36464 -11.3805 1.73819 -0.0114442 35.4734 0.363058 -21.2488 -4.00171 4.21103 -2.52193e-09 0.798301 -1.87153e-06 -4.751 -14.2295 -3.15702 0.00491875 38.0096 -0.0307857 3.38417 2.49777 -13.2469 -2.60234e-07 -11.239 -3.62408e-07 -0.148002 0.715844 0.351086 -0.300418 1.43078 0.704107 -0.300418 1.43078 0.704107 3.78361 12.7286 -21.9477 67.2428 -30.3255 14.1953 0.000200799 -0.000197324 79.533 -38.4037 -27.9142 11.5888 -3.5786 18.7327 16.8185 -73.2076 -28.5292 -18.045 -0.000137357 -0.000229137 -70.7734 18.7162 -32.9149 -18.6993 -2.42815 -0.888894 -6.02764 2.94163 -2.74049 1.13157 
-2.90246 36.5009 2.07445 4.05608 -6.27762 4.91885 4.7358 -13.6896 6.1981 0.0125981 40.0208 0.451902 -25.3061 -11.3347 5.83619 -1.43716e-06 2.5206 -1.22388e-06 -5.55997 -19.1345 -8.36393 0.0161536 42.3791 0.0283122 0.975677 7.11992 -17.4855 -8.53293e-07 -10.5334 -8.70112e-06 -0.184246 0.991493 0.54023 -0.377913 1.98118 1.08388 -0.377914 1.98118 1.08388 4.07244 12.1382 -20.1524 65.0756 -26.8425 20.9279 9.6087e-05 -0.000194445 86.0894 -38.4564 -20.2717 12.4074 -4.26382 18.4622 16.2598 -71.8343 -27.4916 -24.3378 3.9041e-06 -0.00020916 -81.2972 12.8167 -22.1545 -15.4675 -2.94101 -1.53578 -5.93909 2.81956 -5.79722 1.21474 
-3.04308 33.7522 1.58186 3.27954 -7.301 3.74338 9.14486 -12.2064 5.66873 0.0278195 45.3524 1.79544 -50.9764 -21.9809 -7.83512 -4.46323e-06 -2.9247 3.78618e-06 -4.87443 -27.321 -11.8336 -0.0148687 59.9563 0.170078 -5.67169 -11.4524 -23.3115 -1.31955e-06 -13.2859 -5.70968e-06 -0.134343 1.51103 0.853961 -0.291354 3.01988 1.71236 -0.291356 3.01988 1.71236 4.19171 12.8002 -19.5823 62.1435 -23.1154 28.9924 -0.000424278 -0.000218787 86.0152 -38.5595 -7.91527 16.5237 -4.12646 19.0415 16.0117 -68.8148 -25.1534 -33.1476 0.00130094 -0.000205725 -88.3196 5.36168 -8.0129 -8.9358 -2.96015 -2.83426 -6.5057 2.48645 -11.0889 1.00269 
-3.10993 32.4684 1.00828 1.65833 -3.09251 2.7487 12.4817 -19.9406 5.94043 0.0877285 50.3671 2.00278 -55.7744 -23.4478 -17.0903 -3.40729e-06 -1.4253 1.87248e-06 -2.62697 -35.0645 -10.5101 0.0260661 66.5639 0.165208 -9.1661 -21.4658 -23.1519 -1.20814e-06 -10.1027 -5.35795e-06 0.0354249 0.997049 1.12128 0.0513448 1.9946 2.24246 0.0513436 1.9946 2.24246 4.02064 13.0786 -19.266 57.393 -16.7885 34.7263 0.000140213 -0.000213844 75.2514 -40.3862 0.664751 18.5143 -2.91323 19.0763 15.2138 -64.686 -19.6488 -37.3739 -0.000200881 -0.000295113 -90.9772 -2.16757 5.95403 0.823902 -2.69984 -5.5781 -7.27914 1.56513 -12.175 1.21778 
-3.07216 33.43 0.498927 2.40756 -2.73129 3.87261 9.88049 -21.6129 3.8154 0.0455424 48.2991 1.6249 -49.6151 -21.0198 -10.4636 4.88849e-06 -4.4343 4.59509e-06 -3.88416 -32.8961 -8.0327 -0.0178129 60.3635 0.109201 -3.62379 -16.6846 -17 8.23333e-07 -12.2573 7.07936e-06 -0.049473 1.14123 0.735318 -0.113627 2.28171 1.47207 -0.113628 2.28171 1.47207 4.38977 12.9052 -17.1946 51.5459 -7.10646 36.8277 0.00210864 -0.000133332 56.2544 -31.8919 -3.87987 7.68324 -3.27381 20.1557 13.9093 -60.2773 -10.8852 -37.0286 0.00958151 -0.000212865 -84.2732 -1.75264 13.8252 7.21995 -3.16154 -6.57384 -7.18741 2.12616 -12.9118 1.62746 
-3.03923 35.9373 0.231975 2.03522 -3.37189 7.11077 5.36125 -13.213 1.36306 -0.0549399 32.6868 0.623329 -27.935 -17.3094 2.47708 1.36814e-06 1.5086 -3.27473e-06 -3.38352 -23.3303 -9.44571 -0.0219878 40.8056 0.0867452 -1.8608 0.738946 -16.5799 -1.30625e-07 -16.2905 -1.05029e-06 0.0927223 1.16802 0.536983 0.174553 2.33686 1.07241 0.174553 2.33686 1.07242 5.33842 13.0466 -16.4651 49.8671 2.66053 36.7292 -0.0179795 -9.75604e-05 31.9961 -16.7502 -6.72825 -1.84076 -3.3536 19.8822 12.5466 -56.7252 1.98794 -38.9582 0.00154284 -0.000115546 -63.0457 -1.32796 16.5995 10.0623 -3.12988 -5.96992 -8.22063 2.43035 -10.6591 0.256622 
